<?xml version="1.0" encoding="utf-8"?>
<!-- Generator: Adobe Illustrator 27.7.0, SVG Export Plug-In . SVG Version: 6.00 Build 0)  -->
<svg version="1.1" id="Layer_1" xmlns="http://www.w3.org/2000/svg" xmlns:xlink="http://www.w3.org/1999/xlink" x="0px" y="0px"
	 viewBox="0 0 280 189" style="enable-background:new 0 0 280 189;" xml:space="preserve">
<style type="text/css">
	.st0{fill-rule:evenodd;clip-rule:evenodd;fill:#242222;}
</style>
<path class="st0" d="M140.4,47.9L93,0.5L20.8,72.8c-0.1,0.1-0.3,0.3-0.4,0.4c-0.1,0.1-0.3,0.3-0.4,0.4l-1,1l0,0
	c-24.8,26.3-24.3,67.6,1.4,93.3c26.2,26.2,68.6,26.2,94.8,0c26.2-26.2,26.2-68.6,0-94.8L140.4,47.9z"/>
<path class="st0" d="M279.4,48.4L232,1l-72.2,72.2c-0.1,0.1-0.3,0.3-0.4,0.4c-0.1,0.1-0.3,0.3-0.4,0.4l-1,1l0,0
	c-24.8,26.3-24.3,67.6,1.4,93.3c26.2,26.2,68.6,26.2,94.8,0c26.2-26.2,26.2-68.6,0-94.8L279.4,48.4z"/>
</svg>
