<?xml version="1.0" encoding="utf-8"?>
<!-- Generator: Adobe Illustrator 28.0.0, SVG Export Plug-In . SVG Version: 6.00 Build 0)  -->
<svg version="1.1" id="Layer_1" xmlns="http://www.w3.org/2000/svg" xmlns:xlink="http://www.w3.org/1999/xlink" x="0px" y="0px"
	 viewBox="0 0 408.5 125" style="enable-background:new 0 0 408.5 125;" xml:space="preserve">
<style type="text/css">
	.st0{fill:#DCF2F4;}
</style>
<g>
	<path class="st0" d="M46.1,9.2C31.3,44.3,16.6,79.4,1.9,114.5c-0.1,0-0.3,0-0.4-0.1c0-0.7,0-1.4,0-2.1c0-33.5,0-67.1,0-100.6
		c0-0.9-0.1-1.7-0.1-2.6C16.3,9.2,31.2,9.2,46.1,9.2z"/>
	<path class="st0" d="M122.2,9.2c0,34.3,0,68.6,0,102.9c0,0.8,0,1.6,0,3c-0.5-0.9-0.7-1.3-0.9-1.8C106.9,79.1,92.7,45,78.4,10.9
		c-0.2-0.5-0.3-1.1-0.5-1.7C92.6,9.2,107.4,9.2,122.2,9.2z"/>
	<path class="st0" d="M71.8,115.8c-2.5-6.3-5.2-12.6-7.6-19c-0.7-2-1.7-2.6-3.8-2.5c-5.2,0.2-10.5,0.1-15.7,0.1c-0.7,0-1.3,0-2.3,0
		c6.5-15.3,12.9-30.3,19.4-45.7c2.9,6.8,5.6,13.2,8.3,19.6c6.5,15.4,13,30.7,19.5,46.1c0.2,0.5,0.5,1,0.7,1.4
		C84.2,115.8,78,115.8,71.8,115.8z"/>
	<path class="st0" d="M245.5,47.2c0-6.2,0-12.4,0-18.7c3.6,0,7,0,10.7,0c0,0.9,0,1.6,0,2.4c0,17,0,34.1,0,51.1c0,1.7-0.2,3.4,0.2,5
		c0.4,2.1-0.3,3-2.2,3.6c-6.8,2.4-13.8,3.4-21,2.1c-9.2-1.7-15.1-7.6-16.9-16.8c-1.9-10.1,1.7-19.5,9.9-24.7
		c4.9-3.2,10.4-4.2,16.1-4.1c0.8,0,1.6,0.1,2.4,0.1C244.9,47.4,245,47.3,245.5,47.2z M245.4,70.2c0-3.1,0-6.2,0-9.2c0-4.9,0-5-5-4.8
		c-5.4,0.2-9.9,2.4-12.1,7.5c-2.4,5.6-2.2,11.2,1.6,16.2c3.5,4.6,8.7,4.7,13.9,4c1.3-0.2,1.6-0.8,1.6-2
		C245.4,78,245.4,74.1,245.4,70.2z"/>
	<path class="st0" d="M330.3,48.4c4.7-1.2,9.2-1.6,13.7-0.6c9,1.9,15.4,9.5,15.8,18.7c0.8,16.3-10.2,27.3-26.9,26.9
		c-3.9-0.1-7.7-1-11.5-1.5c-1.4-0.2-2-0.9-2-2.4c0-19.7,0-39.4,0-59.2c0-1.5,0.5-2,2-1.9c2.2,0.1,4.4,0.1,6.6,0
		c1.6-0.1,2.2,0.4,2.2,2.1c0,5.4,0.1,10.9,0.1,16.3C330.3,47.2,330.3,47.7,330.3,48.4z M330.3,70.6c0,3.8,0.1,7.6,0,11.5
		c-0.1,1.6,0.6,2,2,2.2c10,1.5,17.9-6.5,16.5-16.6c-0.8-6.1-3.5-9.9-8.6-10.8c-2.7-0.5-5.6-0.1-8.3,0c-1.2,0-1.6,0.8-1.6,2
		C330.3,62.9,330.3,66.7,330.3,70.6z"/>
	<path class="st0" d="M157.8,92.5c0.3-1.2,0.5-2,0.8-2.8c5.9-16.7,11.8-33.5,17.7-50.2c0.7-1.9,0.9-3.9,1.5-6.1
		c4,0,8.2-0.1,12.4,0.1c0.5,0,1,1,1.3,1.7c5.9,16.3,11.8,32.6,17.7,48.9c1,2.7,1.9,5.4,3,8.5c-3.8,0-7.3,0.1-10.8-0.1
		c-0.4,0-1-1-1.2-1.6c-1.5-4-2.9-8.1-4.2-12.1c-0.4-1.2-1-1.8-2.4-1.8c-6.1,0.1-12.2,0.1-18.3,0c-1.3,0-1.9,0.5-2.3,1.7
		c-1.3,4.1-2.7,8.1-4,12.2c-0.4,1.3-1,1.8-2.4,1.8C163.7,92.4,161,92.5,157.8,92.5z M184.3,42.4c-2.7,8.5-5.3,16.6-7.9,24.8
		c5.4,0,10.5,0,15.9,0C189.7,58.9,187.1,50.8,184.3,42.4z"/>
	<path class="st0" d="M309.6,69.3c-0.2,8.9-2.6,16.1-9.7,20.8c-13.9,9.2-32.2,0.2-33.6-16.3c-0.6-7.7,0.8-14.8,6.5-20.4
		c6.3-6.2,14-7.4,22.2-5c7.8,2.3,12.1,8.1,13.9,15.8C309.4,66,309.4,68.1,309.6,69.3z M277.1,70.1c0,3.7,0.6,7,2.6,9.9
		c4.2,6.1,13.2,5.9,16.7-0.7c3.2-6,3.2-12.4-0.2-18.3c-3.8-6.7-13.2-6.5-17.1,0.1C277.6,64,277,67.1,277.1,70.1z"/>
	<path class="st0" d="M378.4,72.7c-0.1,6.1,4.2,10.6,10.6,11.4c5,0.6,9.7-0.2,14.7-2.1c0,2.8,0.1,5.4-0.1,7.9c0,0.4-0.6,1-1.1,1.2
		c-8.1,3-16.3,3.6-24.2-0.2c-6.6-3.2-9.7-9.1-10.6-16.1c-1-8.1,0.5-15.5,6.3-21.6c5.8-6.2,16.1-7.9,23.6-4c6.9,3.6,9.3,9.8,9.6,17.2
		c0,0.6,0,1.2-0.1,1.8c-0.2,4.4-0.2,4.4-4.6,4.5c-7.2,0.1-14.5,0-21.7,0C380,72.7,379.3,72.7,378.4,72.7z M396.6,65
		c0.7-4.4-2.5-8.6-7-9.2c-5.9-0.8-10.6,3.1-11.1,9.2C384.6,65,390.6,65,396.6,65z"/>
</g>
</svg>
