<?xml version="1.0" encoding="utf-8"?>
<!-- Generator: Adobe Illustrator 28.0.0, SVG Export Plug-In . SVG Version: 6.00 Build 0)  -->
<svg version="1.1" id="Layer_1" xmlns="http://www.w3.org/2000/svg" xmlns:xlink="http://www.w3.org/1999/xlink" x="0px" y="0px"
	 viewBox="0 0 408.5 138.9" style="enable-background:new 0 0 408.5 138.9;" xml:space="preserve">
<style type="text/css">
	.st0{fill:#DCF2F4;}
</style>
<g>
	<path class="st0" d="M79.2,50.3c7.3,0,14.6,0,21.9,0c1.3,0,1.7,0.2,1.9,1.7c1.8,12.5-0.3,24.1-7.3,34.6c-5.7,8.6-13.9,14-23.6,17.1
		c-4.3,1.4-8.7,2-13.3,2.3c-9.2,0.6-17.9-1.3-26.2-5.2c-5-2.4-9.5-5.7-13.5-9.7c-4-3.9-7.1-8.3-9.7-13.2c-2.3-4.2-3.7-8.8-4.8-13.5
		c-1.1-4.9-1.2-9.9-0.7-14.8c0.8-8.2,3.7-15.9,8.3-22.8c2.3-3.4,4.8-6.6,7.8-9.4c7.7-7,16.5-11.5,26.8-13.2
		C57.7,2.8,68.1,4.4,78,8.9c4.3,2,8.1,4.7,11.7,7.8c0.7,0.6,1,1.1,0.1,1.9c-2.7,2.7-5.3,5.4-7.9,8.2c-0.7,0.8-1.1,0.9-2,0.1
		c-14.4-12.5-35.4-12.3-49.2,0.7C21.6,36.3,18,47.1,19.4,59.4C21.3,75.7,32.2,87.9,48,91.2c12.1,2.5,23.3,0.3,32.7-8.4
		c5-4.6,7.3-10.5,8.2-17.2c0.2-1.6-0.7-1.3-1.5-1.3c-9.8,0-19.6-0.1-29.4,0c-2,0-2.4-0.6-2.3-2.4c0.1-3.2,0.1-6.4,0-9.5
		c-0.1-1.6,0.3-2.2,2.1-2.2C64.9,50.4,72.1,50.3,79.2,50.3z"/>
	<path class="st0" d="M301.6,47.5c0-1.2,0.1-2.2,0-3.2c-0.2-1.6,0.5-2,2-1.9c3.3,0.1,6.6,0.1,9.9,0c1.5-0.1,2,0.3,2,1.9
		c-0.1,13.8,0,27.7,0,41.5c0,5.5,0.1,11.1,0,16.6c-0.2,6.9-1.4,13.6-5,19.6c-4.4,7.4-11.1,11.6-19.5,13.1
		c-7.3,1.3-14.5,0.7-21.3-2.7c-6.7-3.4-11.4-8.9-14.8-15.6c-0.4-0.7,0.1-0.7,0.4-0.8c3.7-1.6,7.5-3,11.2-4.7
		c1.2-0.5,1.2,0.4,1.5,0.9c2.7,5,6.5,8.7,12.2,10c9.5,2,18.5-3,20.7-12.6c0.8-3.7,0.6-7.4,0.6-11.2c-1.8,1-2.9,2.6-4.4,3.7
		c-3.5,2.5-7.3,3.5-11.5,3.9c-8,0.7-15-1.7-21.2-6.6c-6.5-5.2-10.5-12-11.9-20.3c-1.6-9.5,0.5-18.2,6.1-25.9
		c5.7-7.7,13.4-12.1,23.2-12.6c7.3-0.4,13.7,1.6,19,6.7C301,47.3,301.2,47.3,301.6,47.5z M266.7,73.2c-0.1,2.2,0.2,4.4,0.8,6.5
		c1.9,7,8,12.4,14.7,13.3c7.4,0.9,14.3-2.3,17.7-8.8c3.8-7.1,3.8-14.5,0-21.6c-5-9.2-16-11.9-24.5-6.3
		C269.4,60.2,266.8,66.1,266.7,73.2z"/>
	<path class="st0" d="M141.1,106c-20.2,0.1-33.3-15.5-33.1-33.2c0.2-18.9,13.8-32.6,33.4-32.5c18.7,0.2,33,13.3,32.9,33
		C174.2,91.9,159.6,106.3,141.1,106z M122.7,73c0,1.7,0.1,3.4,0.5,5c1.9,7.7,6.5,13,14.5,14.6c7.5,1.5,13.7-1,18.3-7.1
		c5.4-7.1,5.3-18.1-0.2-25.2c-3.4-4.4-7.9-6.9-13.4-7.1C131.1,52.8,122.7,61.3,122.7,73z"/>
	<path class="st0" d="M213.3,106c-19.9,0.1-32.1-14.3-33.2-29.8c-1.6-22.8,15-36,33-35.8c18.5,0.2,33.1,13.1,33,33.1
		C246.1,91.9,231.6,106,213.3,106z M231.9,72.8c0-0.6-0.1-1.7-0.2-2.7c-1-7.1-4.5-12.5-11.3-15.4c-6.6-2.8-12.9-2-18.5,2.5
		c-6.6,5.2-8.4,12.4-7,20.5c1.9,10.8,12.4,17.6,22.8,14.9C226.2,90.4,231.8,82.6,231.9,72.8z"/>
	<path class="st0" d="M346,72.5c-0.2-7,1.8-13.7,6.1-19.7c5.2-7.4,12.4-11.3,21.3-12.2c7.7-0.8,14.6,1.1,20.7,5.8
		c5,3.8,8.4,8.9,10.7,14.8c1.5,3.9,1.6,3.9-2.3,5.5c-6.3,2.6-12.5,5.1-18.8,7.6c-6.9,2.8-13.7,5.7-20.6,8.5
		c-0.9,0.4-0.7,0.6-0.4,1.3c5.2,9.9,17.4,11.4,25.7,6c2-1.3,3.7-3,5.1-5c0.5-0.7,0.9-1.1,1.8-0.4c3,2.1,6.2,4.1,9.3,6.1
		c1,0.6,1,1.1,0.2,2c-5.5,6.7-12.2,11.4-20.9,12.8c-9.3,1.5-18-0.3-25.6-5.9c-5.2-3.8-8.7-9-10.7-15.2C346.4,80.7,346,76.9,346,72.5
		z M378.1,52.9c-9.7,0-18.5,8.9-18.1,17.8c0,0.9,0,1.6,1.3,1c9-3.8,18-7.5,27-11.3c1.1-0.5,1.1-0.9,0.5-1.8
		C386,54.7,382,53.1,378.1,52.9z"/>
	<path class="st0" d="M339.4,55.5c0,15.5,0,31,0,46.6c0,1.6-0.3,2.2-2,2.1c-3.6-0.1-7.2-0.1-10.8,0c-1.2,0-1.7-0.3-1.7-1.6
		c0-31.2,0-62.5,0-93.7c0-1.2,0.3-1.6,1.6-1.6c3.7,0.1,7.5,0.1,11.2,0c1.6-0.1,1.8,0.5,1.8,1.9C339.4,24.6,339.4,40,339.4,55.5z"/>
</g>
</svg>
