<?xml version="1.0" encoding="utf-8"?>
<!-- Generator: Adobe Illustrator 28.0.0, SVG Export Plug-In . SVG Version: 6.00 Build 0)  -->
<svg version="1.1" id="Layer_1" xmlns="http://www.w3.org/2000/svg" xmlns:xlink="http://www.w3.org/1999/xlink" x="0px" y="0px"
	 viewBox="0 0 408.5 99.9" style="enable-background:new 0 0 408.5 99.9;" xml:space="preserve">
<style type="text/css">
	.st0{fill:#DCF2F4;}
</style>
<g>
	<path class="st0" d="M42.4,6.6c0,11.9,0,23.9,0.1,35.8c0,1.3-0.1,2.5,0,3.8c0.1,1.3-0.4,1.6-1.6,1.6c-11.7,0-23.5,0-35.2,0
		c-0.9,0-1.8-0.1-2.7,0c-1.2,0.1-1.6-0.3-1.6-1.6c0.1-8.8,0-17.5,0-26.3c0-4.4,0-8.9,0-13.3C15.1,6.6,28.7,6.6,42.4,6.6z"/>
	<path class="st0" d="M87.8,6.6c0,0.5,0.1,0.9,0.1,1.4c0,12.7,0,25.4,0,38.1c0,1.4-0.4,1.7-1.8,1.7c-12.6-0.1-25.2,0-37.8,0
		c-1,0-1.6,0-1.6-1.4c0.1-13.3,0-26.5,0-39.8C60.5,6.6,74.1,6.6,87.8,6.6z"/>
	<path class="st0" d="M1.4,93.3c0-13.3,0-26.5,0-39.8c0-1,0.2-1.4,1.3-1.4c12.8,0,25.6,0,38.4,0c1.1,0,1.3,0.4,1.3,1.4
		c0,13.3,0,26.5,0,39.8C28.7,93.3,15.1,93.3,1.4,93.3z"/>
	<path class="st0" d="M46.8,93.3c0-13.3,0-26.5,0-39.8c0-1.1,0.3-1.4,1.4-1.4c12.7,0,25.5,0,38.2,0c0.9,0,1.5,0.1,1.4,1.2
		c0,13.2,0,26.3,0,39.5c0,0.2-0.1,0.3-0.1,0.5C74.1,93.3,60.5,93.3,46.8,93.3z"/>
	<path class="st0" d="M142,62.7c0.8-1.8,1.4-3.3,2-4.8c4.4-10.8,8.9-21.6,13.2-32.4c0.4-1.1,0.9-1.5,2.2-1.5c3.1,0.1,6.2,0.1,9.4,0
		c1,0,1.4,0.3,1.4,1.3c0,16.4,0,32.9,0,49.3c0,1-0.3,1.3-1.3,1.3c-2.1-0.1-4.1-0.1-6.2,0c-1.2,0.1-1.6-0.3-1.6-1.6
		c0.1-10.1,0-20.2,0-30.3c0-2.8,0-5.7,0-8.5c-0.1,0-0.2,0-0.2-0.1c-1.8,4.6-3.6,9.2-5.4,13.8c-3.3,8.4-6.6,16.8-9.9,25.2
		c-0.4,1-0.9,1.4-2.1,1.4c-4.6,0-4.6,0-6.3-4.3c-4.7-11.6-9.4-23.2-14.1-34.8c-0.1-0.4-0.3-0.7-0.8-1.1c0,0.5,0,1.1,0,1.6
		c0,12.3,0,24.5,0,36.8c0,1.3-0.3,1.8-1.6,1.7c-1.7-0.1-3.4-0.1-5.1,0c-1.4,0.1-1.6-0.4-1.6-1.7c0-15,0-30,0-45
		c0-1.7-0.7-3.8,0.3-4.9c1-1,3.1-0.2,4.7-0.3c2.1,0,4.1,0.1,6.2,0c1.2-0.1,1.8,0.3,2.3,1.5c4.4,11.6,9,23.2,13.5,34.9
		C141.3,61,141.6,61.7,142,62.7z"/>
	<path class="st0" d="M386.1,28.2c-1.9-0.6-3.6-1.2-5.4-0.8c-2.2,0.5-3.6,1.8-4,4c-0.4,2-0.3,4.1-0.3,6.2c0,0.7,0.4,0.9,1,0.9
		c3.7,0,7.4,0,11.1,0c0.8,0,1.1-0.3,1.1-1.1c0-2.1,0-4.1,0-6.2c0-0.7,0.1-1.2,0.9-1.4c2.3-0.6,4.6-1.3,6.8-2.1c0.9-0.3,1,0.1,1,0.8
		c0,2.7,0.1,5.5,0,8.2c-0.1,1.5,0.5,1.9,1.9,1.8c2-0.1,3.9,0,5.9,0c0.9,0,1.2,0.2,1.2,1.2c-0.1,1.6-0.1,3.3,0,4.9
		c0,1-0.4,1.1-1.2,1.1c-2.1,0-4.2,0-6.3,0c-1,0-1.4,0.2-1.4,1.3c0.1,5.4,0,10.8,0,16.2c0,0.5,0.1,1.1,0.1,1.6c0.6,4,3.1,5.6,7,4.3
		c1.7-0.6,1.7-0.6,1.7,1.2c0,1.4,0,2.8,0,4.1c0,0.8-0.2,1.3-1,1.5c-3.5,0.9-7,1.2-10.5,0.1c-3.7-1.2-5.3-4.1-6-7.7
		c-0.4-2.2-0.3-4.4-0.3-6.6c0-4.7,0-9.4,0.1-14.1c0-1.3-0.4-1.6-1.6-1.6c-3.3,0.1-6.7,0.1-10,0c-1.3,0-1.6,0.5-1.5,1.6
		c0,8.9,0,17.9,0,26.8c0,1.2-0.2,1.7-1.5,1.6c-1.9-0.1-3.8-0.1-5.7,0c-1.3,0.1-1.7-0.3-1.7-1.6c0.1-8.9,0-17.8,0.1-26.6
		c0-1.4-0.3-1.9-1.7-1.8c-1.4,0.1-3.2,0.6-4.1-0.2c-1-0.9-0.3-2.8-0.3-4.3c-0.1-2.7,0-2.7,2.7-2.7c3.4,0,3.5,0,3.4-3.5
		c0-3.4,0.4-6.6,2.4-9.5c2.8-4,6.9-5.7,11.6-5.5c4.7,0.1,4.7,0.2,4.7,4.9C386.1,26,386.1,27,386.1,28.2z"/>
	<path class="st0" d="M271.8,76.9c-7.9,0-13.3-1.7-17-6.9c-6-8.3-4.1-22.7,3.7-28.5c4.6-3.4,10-4.1,15.5-3.4c5.3,0.6,9.5,3,12.4,7.5
		c5.3,8.3,3.4,21.7-3.9,27.5C278.8,75.9,274.5,76.9,271.8,76.9z M260.4,58c0,0.8,0.1,2.2,0.4,3.5c0.9,4.9,4.4,7.9,9.4,8
		c5.4,0.1,8.6-2.3,9.8-7.5c0.8-3.3,0.7-6.6-0.1-9.9c-0.9-3.5-2.9-6-6.5-6.8c-3.9-0.9-7.4-0.2-10.2,3C261,51,260.4,54.1,260.4,58z"/>
	<path class="st0" d="M340.1,76.9c-1.6,0-3.9-0.3-6.1-1c-4.6-1.4-7.9-4.3-9.8-8.6c-2.9-6.7-2.8-13.4,0.3-19.9
		c2.6-5.6,7.4-8.4,13.3-9.3c3.3-0.5,6.6-0.4,9.9,0.5c6.9,1.8,11.6,7.6,12.3,15.1c0.4,3.9,0.2,7.7-1.1,11.4
		C356.3,72.7,349.9,76.9,340.1,76.9z M351.3,57c0-0.6,0-1.6-0.1-2.5c-0.5-5.3-3.4-8.6-8-9.3c-4.7-0.7-8.8,1.4-10.7,5.8
		c-1.8,4.2-1.8,8.6-0.2,12.8c1.6,4.1,5.1,6,10.3,5.7c3.9-0.2,6.7-2.6,8-6.6C351.2,61.1,351.3,59.2,351.3,57z"/>
	<path class="st0" d="M293.4,66.1c3,1.9,5.9,3.1,9.1,3.5c1.2,0.1,2.3,0,3.5-0.1c1.5-0.2,2.8-0.8,3.2-2.4c0.4-1.7-0.1-3.2-1.4-4.3
		c-1.2-1-2.7-1.6-4.2-2.3c-2-0.9-4.1-1.7-5.9-3.1c-5.4-3.9-5.8-12.1-0.7-16.4c4.4-3.8,9.5-4.3,14.9-3.2c4.3,0.8,4.3,0.9,4.3,5.4
		c0,1.3-0.1,2.6-0.1,3.9c-1.3-0.1-2.3-1-3.4-1.5c-2.5-0.9-5-1.4-7.6-0.7c-1.5,0.4-2.4,1.4-2.6,2.9c-0.2,1.6,0.1,2.9,1.5,3.9
		c1.2,0.8,2.5,1.4,3.8,1.9c1.8,0.7,3.6,1.5,5.3,2.5c3.5,2.1,5.4,5.1,5.3,9.2c-0.1,4.3-2.2,7.4-6,9.4c-4.3,2.2-8.8,2.3-13.4,1.5
		c-1.5-0.3-3-0.6-4.4-1.1c-0.8-0.3-1.2-0.6-1.2-1.6C293.5,71.2,293.4,68.8,293.4,66.1z"/>
	<path class="st0" d="M222.4,48c-8.5-3.9-13.6-3.5-17.5,1.3c-3.3,4.1-3.4,12.1-0.1,16.2c2.2,2.8,5.1,3.9,8.6,4
		c3.4,0.1,6.2-1.5,9.1-3.2c0,2.6,0,5,0,7.4c0,0.6-0.3,0.9-0.8,1.1c-5.8,2.5-11.8,2.9-17.7,0.5c-5.2-2.1-8.7-6.1-10-11.5
		c-1.6-6.8-0.7-13.3,3.6-19c4.4-5.9,10.7-7.3,17.6-6.9c2.1,0.1,4.2,0.6,6.1,1.5c0.5,0.2,1,0.3,1,1C222.4,42.9,222.4,45.4,222.4,48z"
		/>
	<path class="st0" d="M237.8,44.3c0.6-0.9,0.9-1.4,1.2-2c2.2-3.4,6.4-5,10.4-4.2c1,0.2,1.4,0.6,1.4,1.7c-0.1,2.4,0,4.8,0,7.4
		c-1.2-0.4-2.2-0.8-3.3-1c-4-0.8-7.1,0.9-8.7,4.6c-0.8,2-1,4.2-1,6.4c0,5.7,0,11.4,0,17.1c0,1.3-0.4,1.6-1.6,1.6
		c-2.1-0.1-4.1-0.1-6.2,0c-0.8,0-1.1-0.3-1.1-1.1c0-11.7,0-23.4,0-35c0-0.9,0.3-1.1,1.2-1.1c2.2,0,4.3,0.1,6.5,0
		c0.9,0,1.2,0.3,1.2,1.2C237.8,41.2,237.8,42.5,237.8,44.3z"/>
	<path class="st0" d="M178.5,57.2c0-5.7,0-11.4,0-17.1c0-1.2,0.3-1.5,1.5-1.5c2.1,0.1,4.1,0.1,6.2,0c0.9,0,1.2,0.3,1.2,1.2
		c0,11.6,0,23.2,0,34.9c0,1-0.3,1.3-1.3,1.3c-2.1-0.1-4.1-0.1-6.2,0c-1.1,0-1.4-0.3-1.4-1.4C178.6,68.7,178.5,63,178.5,57.2z"/>
	<path class="st0" d="M182.8,33c-3,0-5.2-2.3-5.2-5.3c0.1-2.7,2.5-4.9,5.4-4.9c2.9,0.1,5.3,2.4,5.3,5.2
		C188.2,30.9,185.8,33,182.8,33z"/>
</g>
</svg>
