<?xml version="1.0" encoding="utf-8"?>
<!-- Generator: Adobe Illustrator 28.0.0, SVG Export Plug-In . SVG Version: 6.00 Build 0)  -->
<svg version="1.1" id="Layer_1" xmlns="http://www.w3.org/2000/svg" xmlns:xlink="http://www.w3.org/1999/xlink" x="0px" y="0px"
	 viewBox="0 0 741.2 149.1" style="enable-background:new 0 0 741.2 149.1;" xml:space="preserve">
<style type="text/css">
	.st0{fill:#E0F1F3;}
</style>
<g>
	<path class="st0" d="M155.8,136.4c-13.9,0-26-2.6-36.4-7.8c-10.4-5.2-18.5-12.4-24.3-21.6c-5.8-9.2-8.7-20.1-8.7-32.4
		c0-12.4,2.9-23.2,8.7-32.4c5.8-9.2,13.9-16.5,24.3-21.6c10.4-5.2,22.5-7.8,36.4-7.8c13.8,0,26,2.6,36.4,7.8
		c10.4,5.2,18.5,12.4,24.3,21.6c5.8,9.3,8.7,20.1,8.7,32.4c0,12.4-2.9,23.2-8.7,32.4c-5.8,9.3-13.9,16.5-24.3,21.6
		C181.8,133.8,169.7,136.4,155.8,136.4z M155.8,112.4c8.7,0,16.1-1.5,22.4-4.6c6.3-3.1,11.2-7.5,14.6-13.2
		c3.4-5.7,5.2-12.4,5.2-20.1c0-7.7-1.7-14.4-5.2-20.1c-3.4-5.7-8.3-10.1-14.6-13.2c-6.3-3.1-13.8-4.6-22.4-4.6
		c-8.6,0-16,1.5-22.4,4.6c-6.3,3.1-11.2,7.5-14.7,13.2c-3.4,5.7-5.2,12.4-5.2,20.1c0,7.7,1.7,14.4,5.2,20.1
		c3.4,5.7,8.3,10.1,14.7,13.2C139.8,110.9,147.3,112.4,155.8,112.4z"/>
	<path class="st0" d="M273.8,74.6l-7.9,50.4l-11.7-13.3h91.7V134h-107l9.2-59.5l-9.2-59.5H345v22.4h-90.9l11.7-13.3L273.8,74.6z
		 M340.9,64.2v20.6h-85.2V64.2H340.9z"/>
	<path class="st0" d="M366.2,15.1h27V134h-27V15.1z"/>
	<path class="st0" d="M481.5,80.1v-16l56.9,69.9h-33.1l-40.6-51.9h12.5L436.5,134H404l57.1-69.8v15.5l-53.4-64.7h33.5L478.2,62
		h-12.8L502,15.1h32.8L481.5,80.1z"/>
	<path class="st0" d="M536.1,95.2h27.3c0.6,4,2.4,7.5,5.3,10.5c2.9,3,6.8,5.3,11.7,7c4.9,1.6,10.6,2.5,17,2.5c9.4,0,16.8-1.3,22.3-4
		c5.4-2.7,8.2-6.5,8.2-11.3c0-3.8-1.6-6.7-4.7-8.8c-3.1-2.1-8.9-3.6-17.4-4.5l-23.9-2.7c-15.4-1.7-26.6-5.3-33.5-10.9
		c-6.9-5.5-10.4-13.3-10.4-23.2c0-7.8,2.3-14.5,6.9-20c4.6-5.5,11.1-9.7,19.4-12.6c8.4-2.9,18.2-4.4,29.5-4.4
		c11,0,20.8,1.6,29.3,4.8c8.6,3.2,15.4,7.7,20.5,13.5c5.1,5.8,7.8,12.5,8.2,20.2h-27.3c-0.5-3.5-2.1-6.5-4.7-9.1
		c-2.6-2.6-6.2-4.6-10.7-6c-4.5-1.4-9.9-2.1-16-2.1c-8.6,0-15.4,1.3-20.5,3.8c-5.1,2.5-7.6,6.1-7.6,10.8c0,3.6,1.5,6.4,4.5,8.3
		c3,2,8.3,3.4,15.9,4.4l24.9,3c11,1.2,19.7,3,26.2,5.6c6.5,2.6,11.2,6.1,14,10.4c2.8,4.3,4.2,9.8,4.2,16.5c0,7.9-2.4,14.9-7.2,20.9
		c-4.8,6-11.6,10.6-20.2,13.9c-8.7,3.3-18.8,4.9-30.4,4.9c-11.8,0-22.3-1.7-31.2-5.2c-9-3.4-16.1-8.2-21.2-14.4
		C539.3,110.6,536.5,103.4,536.1,95.2z"/>
</g>
</svg>
