<?xml version="1.0" encoding="utf-8"?>
<!-- Generator: Adobe Illustrator 28.0.0, SVG Export Plug-In . SVG Version: 6.00 Build 0)  -->
<svg version="1.1" id="Layer_1" xmlns="http://www.w3.org/2000/svg" xmlns:xlink="http://www.w3.org/1999/xlink" x="0px" y="0px"
	 viewBox="0 0 408.5 118.7" style="enable-background:new 0 0 408.5 118.7;" xml:space="preserve">
<style type="text/css">
	.st0{fill:#DCF2F4;}
</style>
<g id="l8m7cW.tif">
	<g>
		<path class="st0" d="M406.4,80.4c-5.6,0.1-10.2,0.2-15.8,0.2c-2.4,0-2.8,0.8-1.9,2.9c2.2,4.8,8.6,6.1,11.9,1.9
			c1.5-1.9,3-2.1,5.2-1.6c-1.1,4.1-3.9,6.4-7.8,7.1c-4.7,0.8-8.9-0.2-11.8-4.4c-2.7-3.9-2.7-10.9,0.1-14.7c2.6-3.6,7.9-5.3,12.7-3.8
			c3.7,1.1,6.1,3.6,7,7.5c0.2,1,0.4,1.5,0.3,2.7C406.3,78.9,406.4,79.7,406.4,80.4z M388.1,77.6c4,0,7.8-0.1,11.5,0
			c3,0.1,3-1.2,1.9-3.3c-1.6-3.1-4.5-3.7-7.5-3.3C390.6,71.5,388.8,73.8,388.1,77.6z"/>
		<path class="st0" d="M406.4,45.6c-0.2,0.2-0.3,0.6-0.5,0.9c-0.9,2.1-3.2,3.3-5.3,3.9c-2.6,0.7-5.6,0.4-8-1
			c-1.2-0.7-2.2-1.6-2.9-2.8c-0.5-0.8-1.8-2-0.4-2.9c1.1-0.7,2.8-0.8,3.6,0.7c1.5,2.9,4,2.9,6.7,2.7c1.5-0.1,2.5-1.1,2.8-2.6
			c0.4-1.7-0.7-2.6-2.1-3.1c-2.2-0.8-4.5-1.4-6.7-2.2c-2.7-0.9-4.5-2.7-4.4-5.7c0.1-3.1,1.9-4.9,4.8-5.9c4.5-1.6,9.6-0.1,11.4,3.5
			c0.5,1,1.1,2.4,0,3c-1,0.5-2.5,0.8-3.4-1c-1.3-2.6-3.6-3.2-6.3-2.4c-1.2,0.3-2.3,0.8-2.5,2.4c-0.2,1.6,0.6,2.6,2,3.2
			c0.6,0.2,1.2,0.4,1.7,0.6c2.3,0.6,4.4,1.8,6.6,2.6C407.3,40.9,406.6,45.4,406.4,45.6z"/>
		<path class="st0" d="M74.9,40.6c4.4,8.7,3.3,18,2.6,27.1c-0.9,13.6-11.8,23.1-25.4,23.1c-11.4,0-22.9,0.1-34.3-0.1
			c-2.9,0-3.5,0.8-3.4,3.6c0.2,6.4,0,12.9,0.1,19.4c0,1.9-0.5,2.5-2.5,2.6c-10.3,0.4-10.3,0.5-10.3-9.6c0-6.8,0-13.6,0-20.5
			c0-5.9,2.2-8.1,8.1-8.1c13.4,0,26.8,0,40.2,0c10.2,0,15-4.8,15.1-15c0-3.5,0.1-7,0-10.4c-0.3-7.5-5.4-12.4-12.9-12.4
			c-15.6,0-31.3-0.1-46.9,0c-2.7,0-3.4-0.4-3.5-3.4c0,0-0.1-5.3-0.1-8c0-1.8,6.7-1.5,9.7-1.5c11.8-0.1,23.6,0,35.4,0
			c6.1,0,12.2-0.1,18.4,3.4c0-4.5,0-8.4,0-12.2c0-4.6,0.1-9.2-0.1-13.8c-0.1-2.4,0.8-2.9,3-2.9c9.8-0.1,9.8-0.2,9.8,9.5
			c0,4.3,0.2,8.7-0.1,13c-0.1,2.6,0.9,3.1,3.2,3.1c11.1-0.1,22.1,0,33.2-0.1c7.1-0.1,13.5,1.8,18.7,6.7c1.6,1.5,2.4,1.2,3.9-0.1
			c5.2-4.8,11.4-6.7,18.4-6.6c15.4,0.1,30.8,0.1,46.2,0c2.6,0,3.6,0.7,3.3,3.3c-0.3,3.1,1.3,7-0.6,9c-1.9,2-5.9,0.6-8.9,0.6
			c-13.5,0.1-27.1,0-40.6,0c-8.2,0-13.2,4.9-13.3,13.1c-0.1,3.5,0,6.9,0,10.4c0,9.3,4.9,14.2,14.2,14.3c15.1,0.1,30.3,0.1,45.4-0.1
			c3.2,0,3.9,0.9,3.8,3.9c-0.2,8.9-0.1,8.9-8.9,8.9c-12.8,0-25.6-0.1-38.4,0c-4.9,0-9.7-0.4-14.2-2.3c-1.3-0.6-2.1-0.9-2.1,1
			c0,0.9-0.5,1.3-1.4,1.3c-3.4,0-6.7,0.1-10.1-0.1c-2.2-0.1-1.4-2-1.4-3.2c-0.1-11.2-0.1-22.3,0-33.5c0-4.7-1.3-8.8-5.4-11.6
			c-1.9-1.3-3.9-2.2-6.2-2.2c-13.5,0-27.1,0-40.6,0C75.8,40.3,75.5,40.5,74.9,40.6z"/>
		<path class="st0" d="M320.9,74.3c-1.4,4.6-2.7,9.2-4.1,13.8c-0.4,1.3-0.5,2.8-2.7,2.9c-2.3,0.1-2.6-1.4-3-2.9
			c-1.8-5.8-3.6-11.6-5.3-17.3c-0.3-0.9-1.6-2.1,0.3-2.7c1.6-0.5,2.9,0,3.4,1.9c1.3,4.9,2.6,9.8,3.9,14.6c0.1,0.3,0.3,0.7,0.8,1.7
			c1.6-5.5,3-10.4,4.5-15.3c0.4-1.5,0.5-3.1,2.9-3c2.4,0.1,2.4,1.7,2.8,3.2c1.4,4.8,2.8,9.7,4.5,15.6c1.6-5.8,2.9-10.7,4.3-15.5
			c0.2-0.8,0.4-1.7,0.8-2.4c0.7-1.3,2-0.9,3-0.6c1.4,0.4,0.4,1.4,0.2,2.1c-1.9,6.1-3.8,12.3-5.7,18.4c-0.4,1.4-0.9,2.3-2.7,2.4
			c-1.9,0-2.3-1-2.7-2.4c-1.4-4.7-2.8-9.4-4.2-14.1C321.4,74.4,321.2,74.3,320.9,74.3z"/>
		<path class="st0" d="M233.7,47.2c0,1.8,0,3.2-2.3,3c-2.4-0.2-1.6-1.8-1.6-3c-0.1-8.3,0-16.6,0-24.9c0-1.2-0.6-2.8,1.7-2.9
			c2.4-0.1,2.1,1.4,2.1,2.9c0,2.6,0,5.2,0,8.3c2.8-2.3,5.4-3.9,8.8-3.7c3.3,0.3,6,1.5,8,4.1c3.7,4.8,3.2,12.2-0.9,16.4
			C245.3,51.7,239.8,51.7,233.7,47.2z M233.6,38.8c0,5,3,8.2,7.5,8.2c4.7,0,7.7-3.4,7.6-8.5c-0.1-4.7-3.5-8.3-7.7-8.2
			C236.7,30.4,233.6,34,233.6,38.8z"/>
		<path class="st0" d="M354.4,40.4c-2.1,0-4.2,0.1-6.3,0c-3-0.3-3.1,1-2,3.2c2,4,8.3,5,11.5,1.7c0.4-0.4,0.6-1.1,1.1-1.5
			c1.1-1.1,2.7-1.1,3.7-0.3c0.9,0.7-0.2,1.8-0.7,2.6c-2.5,3.8-6.4,4.9-10.7,4.5c-5-0.5-8.1-3.5-9.4-8.2c-1.6-5.4,0.7-11.4,5.1-13.9
			c4.7-2.6,10.7-1.7,14.2,2.3c0.3,0.4,0.7,0.7,0.9,1.2c1.3,2.5,2.6,5.3,1.3,7.8c-1,1.9-3.8,0.5-5.8,0.8
			C356.4,40.5,355.4,40.4,354.4,40.4z M352.1,37.1c1.5,0,3,0,4.4,0c2.9-0.1,3.4-1.1,1.9-3.6c-2.6-4.2-9-4.3-11.8-0.1
			c-0.6,0.9-1.3,2.1-1.1,3c0.3,1.4,1.9,0.6,2.9,0.7C349.6,37.2,350.9,37.1,352.1,37.1z"/>
		<path class="st0" d="M359.3,70.9c0.1-1.9,0.2-3.2,2.4-3.1c2.3,0.1,1.8,1.6,1.8,2.9c0,5.6,0.1,11.1,0,16.7c0,1.2,0.9,3.1-1.6,3.4
			c-2.4,0.3-2.4-1.4-2.5-3c-7.5,4.5-12.7,4.1-16.7-0.9c-3.5-4.5-3.2-12.4,0.8-16.4C347.6,66.4,353.3,66.4,359.3,70.9z M344.3,79.4
			c0,4.8,3.3,8.4,7.6,8.3c4.3-0.1,7.6-3.7,7.6-8.4c0-5-3.3-8.5-7.9-8.3C347.1,71.1,344.2,74.4,344.3,79.4z"/>
		<path class="st0" d="M316,38.7c0-3.1,0-6.2,0-9.3c0-0.8-0.2-1.9,1.1-2c0.9-0.1,2.3-0.5,2.6,0.8c0.4,2.1,0.9,1.2,2,0.6
			c7-4.2,14.1-0.8,14.8,7.3c0.4,4.1,0.1,8.2,0.2,12.3c0,1.6-0.7,1.8-2,1.9c-1.6,0.1-2.2-0.4-2.2-2.1c0.1-3.8,0.1-7.7,0-11.5
			c-0.1-3.8-2.1-5.9-5.6-6.2c-3.2-0.3-5.9,1.7-6.7,5.2c-0.9,4-0.2,8.2-0.3,12.2c0,1.3,0.1,2.4-1.8,2.5c-2.1,0.1-2.1-1.1-2.1-2.6
			C316.1,44.7,316,41.7,316,38.7z"/>
		<path class="st0" d="M273.1,79.2c0,7.1-4.5,11.8-11.4,11.8c-7,0-11.7-4.6-11.7-11.6c0-6.8,4.9-12,11.5-12
			C268.4,67.4,273.1,72.2,273.1,79.2z M269.3,79.4c0.1-4.8-3.1-8.3-7.4-8.5c-4.6-0.1-7.9,3.3-7.9,8.4c0,4.8,3.3,8.5,7.6,8.4
			C265.9,87.6,269.2,84.1,269.3,79.4z"/>
		<path class="st0" d="M278.1,38.9c0,3,0,5.9,0,8.9c0,2.1-2.6,3.6-3.5,2.1c-1.4-2.4-2.3-0.8-3.5-0.3c-6.5,3.1-13.3-0.7-13.7-7.9
			c-0.2-4.1,0-8.2-0.1-12.3c0-1.3,0.1-2.1,1.8-2.1c1.7,0,2.1,0.7,2.1,2.3c-0.1,3.5-0.1,6.9,0,10.4c0.1,4.8,2.4,7.2,6.6,7.1
			c4-0.1,6-2.5,6.1-7.2c0-3.3,0.1-6.7,0-10c0-1.6,0.3-2.5,2.2-2.5c2.1,0,2.1,1.1,2.1,2.6C278.1,32.9,278.1,35.9,278.1,38.9z"/>
		<path class="st0" d="M292.1,50.7c-3.2-0.3-6.2-1-8-3.9c-0.6-1-1.7-2.3-0.3-3.2c1-0.6,2.7-0.9,3.5,0.8c1.3,2.8,3.8,2.9,6.4,2.6
			c1.6-0.2,2.9-0.9,3.1-2.6c0.2-1.7-0.9-2.5-2.2-3c-2.1-0.8-4.3-1.2-6.4-2c-2.7-1-4.8-2.7-4.8-5.9c0.1-3.4,2.3-5.1,5.2-6
			c4.4-1.4,9.4,0.1,11.1,3.7c0.4,0.9,1.6,2.1,0.3,2.9c-1.1,0.7-2.7,0.7-3.5-0.9c-1.5-2.7-3.8-3.4-6.6-2.5c-1.3,0.4-2.2,1.3-2.4,2.6
			c-0.2,1.4,0.8,2.4,2,2.8c1.7,0.7,3.5,1.2,5.2,1.8c5,1.7,6.7,3.8,5.9,7.5C299.9,48.5,296.4,50.8,292.1,50.7z"/>
		<path class="st0" d="M376,27c3.3,0.1,6.1,0.9,7.7,4.1c0.5,1,1.2,2.3,0.1,2.9c-1.1,0.6-2.6,0.7-3.4-1c-1.3-2.6-3.6-3.2-6.3-2.5
			c-1.4,0.4-2.5,1.1-2.6,2.8c-0.1,1.5,0.8,2.3,2,2.8c2.1,0.8,4.2,1.4,6.3,2.1c3,1,5,2.9,4.8,6.2c-0.3,3.4-2.5,5.2-5.7,5.9
			c-4.4,1-9-0.5-10.9-3.7c-0.5-0.9-1.6-2.1-0.3-2.9c1.1-0.7,2.7-0.9,3.5,0.7c1.3,2.5,3.5,2.9,6,2.7c1.8-0.1,3.1-0.8,3.4-2.7
			c0.3-1.9-0.9-2.7-2.4-3.2c-1.4-0.5-2.8-0.9-4.2-1.3c-5.1-1.6-7-3.8-6.4-7.3C368.1,29.2,371.4,27,376,27z"/>
		<path class="st0" d="M237.9,91c-3.4,0.1-6-0.7-7.9-3.1c-0.8-1-2.3-2.4-1.1-3.4c1.1-0.9,2.9-0.8,4.1,0.9c1.8,2.6,4.2,3.1,7.2,1.9
			c1.3-0.5,2.1-1.5,2.1-2.7c0-1.1-0.8-2.1-2-2.5c-2.3-0.8-4.7-1.4-7-2.3c-2.9-1.1-4.7-3.1-4.3-6.5c0.4-3.2,2.4-4.7,5.3-5.4
			c4.8-1.2,9.1,0.3,10.8,3.6c0.5,1,1.2,2.3,0.1,2.9c-1,0.5-2.7,1-3.4-0.8c-0.6-1.5-1.7-2.4-3.3-2.6c-2.1-0.2-4.5-0.5-5.3,2.1
			c-0.9,2.8,1.6,3.5,3.5,4.2c1.5,0.5,3.1,0.9,4.6,1.4c3.1,1.1,5.3,3,5,6.5c-0.2,3.1-3.2,5.5-6.8,5.8C238.7,91,238.1,91,237.9,91z"/>
		<path class="st0" d="M293,79.2c0-2,0-4,0-5.9c0-1.2-0.1-2.1-1.6-2.3c-2.1-0.4-1.6-2.7-0.7-2.8c2.8-0.3,2.3-2,2.3-3.6
			c0-1.2-0.3-2.5,1.7-2.5c2.1-0.1,2.3,1.1,2.1,2.6c-0.5,2.9,0.8,3.7,3.5,3.4c1-0.1,2.4-0.4,2.5,1.4c0.1,2.1-1.4,1.8-2.5,1.6
			c-2.9-0.4-3.7,0.8-3.5,3.5c0.2,3.1,0.1,6.2,0,9.3c-0.1,2.5,0.7,3.8,3.4,3.6c1.2-0.1,2.6-0.4,2.6,1.6c0,2.2-1.4,1.9-2.8,1.9
			c-5.1,0-7-1.8-7-6.8C293,82.4,293,80.8,293,79.2z"/>
		<path class="st0" d="M278.9,80.8c0-2.1,0-4.2,0-6.3c0-1.6,0.7-3.4-2.2-3.8c-1.3-0.2-1.2-2.5,0.1-2.6c2.3-0.3,2-1.6,2.1-3.1
			c0.4-3.7,3.1-6.1,6.3-6c0.9,0,1.8,0,1.9,1.2c0.1,0.9,0,1.7-1.2,1.9c-1.4,0.3-2.5,1.1-3,2.5c-0.6,1.9-0.8,3.5,2.1,3.3
			c1.2-0.1,2.7-0.4,2.6,1.7c-0.1,1.8-1.5,1.4-2.5,1.3c-2.4-0.3-2.6,1.1-2.5,2.9c0.1,4.8,0,9.7,0,14.5c0,1.6-0.2,2.6-2.2,2.5
			c-2.1-0.1-1.6-1.5-1.6-2.6C278.9,85.8,278.9,83.3,278.9,80.8z"/>
		<path class="st0" d="M369.8,79c0-3,0.1-5.9,0-8.9c-0.1-3,2.9-2.8,3.3-1.9c1.6,2.9,2.6,0.6,3.9,0.1c1.1-0.4,2.3-1.1,3.5-0.6
			c0.9,0.4,0.5,1.5,0.5,2.3c0.1,1.4-0.8,1.6-1.9,1.6c-3.9,0.2-5.3,2.7-5.3,6.2c0,3.6-0.1,7.2,0,10.7c0,1.4-0.3,2.3-2,2.3
			c-1.7,0-2.1-0.7-2.1-2.2C369.8,85.4,369.8,82.2,369.8,79z"/>
		<path class="st0" d="M305.8,38.6c0-3,0-5.9,0-8.9c0-1.4,0.2-2.4,2-2.4c1.8,0,2,1,2,2.4c0,6.1,0,12.1,0,18.2c0,1.5-0.3,2.3-2,2.3
			c-1.8,0-2-0.9-1.9-2.3C305.8,44.8,305.8,41.7,305.8,38.6z"/>
		<path class="st0" d="M310.3,21.1c-0.1,1.6-1,2.6-2.5,2.7c-1.5,0.1-2.6-1.1-2.6-2.5c0-1.5,1-2.6,2.5-2.6
			C309.3,18.6,310.2,19.6,310.3,21.1z"/>
	</g>
</g>
</svg>
