<?xml version="1.0" encoding="utf-8"?>
<!-- Generator: Adobe Illustrator 28.0.0, SVG Export Plug-In . SVG Version: 6.00 Build 0)  -->
<svg version="1.1" id="Layer_1" xmlns="http://www.w3.org/2000/svg" xmlns:xlink="http://www.w3.org/1999/xlink" x="0px" y="0px"
	 viewBox="0 0 408.5 118.7" style="enable-background:new 0 0 408.5 118.7;" xml:space="preserve">
<style type="text/css">
	.st0{fill:#DCF2F4;}
</style>
<g>
	<g>
		<path class="st0" d="M189,59.4c0-10.1,0-20.3,0-30.4c0-0.5-0.1-0.9,0.7-0.9c9.7,0,19.5,0,29.2,0.1c4.6,0,9.1,0.9,13.2,3
			c6.6,3.3,10,8.8,10.7,16.1c0.4,4.6,0,9-1.9,13.3c-1.8,4-4.7,7-8.5,9.1c-0.6,0.4-0.7,0.6-0.3,1.2c4.1,6.3,8.1,12.7,12.1,19.1
			c0.1,0.2,0.5,0.5,0.3,0.7c-0.1,0.3-0.5,0.1-0.8,0.1c-5.4,0-10.8,0-16.2,0c-0.6,0-1-0.2-1.2-0.8c-2.8-5.4-5.7-10.7-8.5-16.1
			c-0.3-0.5-0.6-0.8-1.2-0.8c-3.6,0-7.3,0-10.9,0c-0.6,0-0.8,0.2-0.8,0.8c0,5.3,0,10.7,0,16c0,0.7-0.2,0.9-0.9,0.9
			c-4.7,0-9.5,0-14.2,0c-0.7,0-0.9-0.2-0.9-0.9C189,79.7,189,69.6,189,59.4z M204.9,50.6c0,3.1,0,6.2,0,9.3c0,0.6,0.2,0.8,0.8,0.8
			c2.1,0,4.3,0,6.4,0c2.4,0,4.8,0.1,7.1-0.1c4.4-0.5,7.3-2.9,8.3-6.8c0.2-0.9,0.3-1.9,0.3-2.8c0-2.9-0.6-5.5-2.8-7.6
			c-2.1-1.9-4.8-2.5-7.6-2.5c-3.9-0.1-7.8,0-11.8,0c-0.7,0-0.8,0.2-0.8,0.9C204.9,44.5,204.9,47.5,204.9,50.6z"/>
		<path class="st0" d="M134,90.6c-6.2,0-12.3,0-18.4,0c-0.5,0-0.7-0.3-0.9-0.7c-4.1-6.1-8.3-12.2-12.4-18.3c-0.6-0.8-0.6-0.8-1.1,0
			C97,77.7,92.9,83.8,88.8,90c-0.3,0.4-0.5,0.7-1.1,0.7c-5.8,0-11.5,0-17.3,0c-0.1,0-0.2,0-0.4,0c0-0.4,0.3-0.6,0.4-0.8
			c7-10.1,14.1-20.2,21.1-30.3c0.4-0.6,0.4-0.9,0-1.5C85,48.4,78.5,38.8,71.9,29.2c-0.2-0.2-0.5-0.5-0.4-0.7
			c0.1-0.3,0.5-0.1,0.8-0.1c5.6,0,11.1,0,16.7,0c0.6,0,0.9,0.2,1.2,0.7c3.7,5.6,7.4,11.2,11.1,16.8c0.1,0.2,0.3,0.4,0.4,0.5
			c0.3-0.1,0.4-0.4,0.5-0.6c3.7-5.6,7.4-11.1,11-16.7c0.4-0.5,0.7-0.7,1.4-0.7c5.6,0,11.1,0,16.7,0c0.3,0,0.7-0.2,0.9,0.1
			c0.1,0.3-0.2,0.5-0.4,0.8c-6.4,9.3-12.9,18.7-19.3,28c-0.4,0.6-0.5,1,0,1.6c7.1,10.3,14.1,20.6,21.2,30.9
			C133.7,90,133.9,90.2,134,90.6z"/>
		<path class="st0" d="M290.3,57.3c2.7,1.2,4.9,2.7,6.8,4.8c6.6,7.5,5,18.9-3.6,24.3c-3.7,2.4-7.8,3.5-12,4
			c-5.8,0.7-11.6,0.4-17.2-1.3c-3.5-1.1-6.6-2.7-9.2-5.4c-5.8-6.1-5.6-15.8,0.3-21.8c2-2,4.3-3.5,6.9-4.6c-0.2-0.3-0.6-0.4-0.8-0.6
			c-3.8-2.5-6.5-5.7-7.2-10.3c-0.9-5.7,1-10.4,5.7-13.9c3.5-2.6,7.5-3.7,11.8-4.1c5.4-0.5,10.8-0.2,15.9,1.9c4.6,1.9,8.1,5,9.6,10
			c1.9,6.6-0.6,13-6.4,16.7C290.7,57,290.6,57.1,290.3,57.3z M276.1,79.4c2,0,3.9-0.2,5.8-1c3-1.2,4.6-3.6,4.6-6.9
			c0-3.3-1.3-5.8-4.4-7c-4-1.6-8.1-1.6-12.1,0c-3,1.2-4.3,3.6-4.3,6.8c0,3.2,1.3,5.6,4.3,6.9C271.9,79.2,274,79.4,276.1,79.4z
			 M276,52.2c1.7,0,3.3-0.2,4.9-0.8c2.5-1,3.9-2.9,3.9-5.7c0.1-2.9-0.9-5.2-3.6-6.3c-3.4-1.5-6.9-1.5-10.3,0
			c-2.7,1.2-3.7,3.5-3.6,6.4c0.1,2.8,1.5,4.8,4.1,5.7C272.9,52.1,274.4,52.3,276,52.2z"/>
		<path class="st0" d="M140.3,59.5c0-10.1,0-20.2,0-30.3c0-0.8,0.1-1,1-1c4.7,0,9.4,0,14.1,0c0.7,0,0.9,0.2,0.9,0.9
			c0,15.7,0,31.5,0,47.2c0,1.2-0.2,1.1,1.1,1.1c8.2,0,16.3,0,24.5,0c0.8,0,0.9,0.2,0.9,1c0,3.8,0,7.6,0,11.4c0,0.8-0.2,1-1,1
			c-13.5,0-27,0-40.6,0c-0.8,0-0.9-0.2-0.9-0.9C140.3,79.7,140.3,69.6,140.3,59.5z"/>
		<path class="st0" d="M368.8,71.6c-1.6,3.8-3.3,7.5-4.9,11.3c-0.6,1.3-1.2,2.7-1.7,4c-0.2,0.5-0.4,0.7-0.9,0.6
			c-1.1,0-2.2-0.1-3.3,0c-0.7,0-1.1-0.2-1.4-0.9c-2-4.8-4.1-9.5-6.2-14.3c-0.1-0.3-0.3-0.6-0.5-0.8c0,0.3,0,0.6,0,0.9
			c0,5.7,0,11.5,0,17.2c0,0.7-0.2,0.9-0.9,0.9c-1.7-0.1-3.5,0-5.2,0c-0.5,0-0.8-0.1-0.8-0.7c0-9.6,0-19.1,0-28.7
			c0-0.6,0.2-0.7,0.8-0.7c2.3,0,4.6,0,6.9,0c0.6,0,0.9,0.2,1.1,0.8c2.4,5.4,4.9,10.7,7.3,16.1c0.1,0.3,0.2,0.5,0.4,0.8
			c0.3-0.1,0.3-0.4,0.4-0.6c2.5-5.4,4.9-10.8,7.4-16.3c0.3-0.6,0.6-0.8,1.2-0.8c2.2,0,4.4,0,6.6,0c0.6,0,0.9,0.1,0.9,0.8
			c0,9.5,0,19,0,28.4c0,0.7-0.2,0.9-0.9,0.8c-1.7,0-3.4,0-5.1,0c-0.7,0-0.9-0.2-0.9-0.9c0-5.7,0-11.5,0-17.2c0-0.3,0-0.6,0-0.9
			C368.9,71.6,368.9,71.6,368.8,71.6z"/>
		<path class="st0" d="M310.9,75.6c0-4.7,0-9.4,0-14.1c0-0.8,0.2-0.9,1-0.9c4.3,0,8.5,0,12.8,0c3.1,0,6.1,0.5,8.7,2.5
			c3,2.3,3.7,5.5,3.5,9c-0.2,3.6-1.7,6.5-5,8.3c-0.6,0.3-0.2,0.6,0,0.9c1.7,2.7,3.4,5.4,5.1,8c0.1,0.1,0.2,0.2,0.2,0.4
			c0.1,0.3,0.5,0.5,0.3,0.7c-0.1,0.3-0.5,0.1-0.8,0.1c-2.3,0-4.6,0-7,0c-0.6,0-0.9-0.2-1.1-0.7c-1.2-2.4-2.5-4.8-3.7-7.1
			c-0.2-0.5-0.5-0.6-1.1-0.6c-1.5,0-2.9,0-4.4,0c-0.7,0-0.9,0.1-0.9,0.8c0,2.3,0,4.5,0,6.8c0,0.6-0.1,0.9-0.8,0.8c-2,0-4.1,0-6.1,0
			c-0.7,0-0.8-0.2-0.8-0.8C310.9,85.1,310.9,80.4,310.9,75.6z M318.6,71.4c0,1.4,0,2.7,0,4.1c0,0.4,0.1,0.7,0.6,0.6
			c2.1-0.1,4.3,0.1,6.4-0.1c2.5-0.3,3.9-2,4-4.6c0.1-2.7-1.2-4.3-3.8-4.7c-2.2-0.3-4.5-0.1-6.7-0.1c-0.5,0-0.5,0.3-0.5,0.7
			C318.6,68.7,318.6,70.1,318.6,71.4z"/>
		<path class="st0" d="M394,90.5c-4.1-0.1-8.4-1.4-12.3-4.2c-0.6-0.4-0.6-0.7-0.3-1.3c0.8-1.4,1.5-2.9,2.2-4.3
			c0.3-0.6,0.5-0.6,1-0.2c2.8,2.1,5.8,3.5,9.3,3.9c1.1,0.1,2.2,0.1,3.2-0.3c0.9-0.3,1.5-0.9,1.6-1.9c0.1-0.9-0.3-1.7-1.1-2.2
			c-1.1-0.8-2.4-1.1-3.7-1.5c-1.9-0.5-3.8-1-5.7-1.7c-1.4-0.6-2.6-1.3-3.6-2.4c-3-3.4-2.2-9,1.7-11.7c2.1-1.4,4.5-2,7-2.2
			c4.5-0.3,8.7,0.7,12.6,2.8c0.5,0.3,0.7,0.5,0.4,1.1c-0.8,1.5-1.5,3-2.2,4.5c-0.3,0.6-0.5,0.5-1,0.3c-2.7-1.4-5.4-2.5-8.4-2.7
			c-0.7-0.1-1.5,0-2.2,0.2c-1.7,0.6-2.1,2.4-0.7,3.6c0.6,0.5,1.3,0.9,2,1.1c1.7,0.5,3.3,1,5,1.5c1.3,0.4,2.5,0.9,3.7,1.5
			c5.8,2.9,5.5,11,0.4,14C400.3,90,397.6,90.5,394,90.5z"/>
		<path class="st0" d="M33.7,45c2.4,0,4.9,0,7.3,0c0.6,0,0.7,0.1,0.7,0.7c0,3.4,0,6.8,0,10.1c0,0.5-0.1,0.8-0.7,0.8
			c-4.9,0-9.7,0-14.6,0c-0.6,0-0.7-0.2-0.7-0.7c0-3.4,0-6.8,0-10.1c0-0.6,0.1-0.7,0.7-0.7C28.8,45,31.2,45,33.7,45z"/>
		<path class="st0" d="M55.8,56.6c-2.4,0-4.8,0-7.2,0c-0.6,0-0.8-0.1-0.8-0.8c0-3.4,0-6.8,0-10.2c0-0.5,0.1-0.7,0.7-0.7
			c4.9,0,9.8,0,14.8,0c0.5,0,0.7,0.1,0.7,0.6c0,3.5,0,6.9,0,10.4c0,0.6-0.2,0.7-0.7,0.7C60.7,56.6,58.2,56.6,55.8,56.6z"/>
		<path class="st0" d="M33.7,62c2.4,0,4.8,0,7.2,0c0.6,0,0.8,0.1,0.8,0.8c0,3.3,0,6.6,0,10c0,0.7-0.2,0.8-0.9,0.8
			c-4.8,0-9.6,0-14.3,0c-0.6,0-0.8-0.2-0.8-0.8c0-3.3,0-6.6,0-10c0-0.6,0.1-0.8,0.8-0.8C28.9,62,31.3,62,33.7,62z"/>
		<path class="st0" d="M55.8,73.6c-2.4,0-4.7,0-7.1,0c-0.6,0-0.9-0.1-0.9-0.8c0-3.3,0-6.7,0-10c0-0.7,0.2-0.8,0.8-0.8
			c4.8,0,9.6,0,14.4,0c0.7,0,0.9,0.2,0.9,0.9c0,3.3,0,6.6,0,10c0,0.7-0.2,0.9-0.9,0.8C60.6,73.6,58.2,73.6,55.8,73.6z"/>
		<path class="st0" d="M33.6,90.6c-2.4,0-4.8,0-7.2,0c-0.6,0-0.8-0.2-0.8-0.8c0-3.3,0-6.7,0-10c0-0.6,0.2-0.8,0.8-0.8
			c4.8,0,9.7,0,14.5,0c0.6,0,0.8,0.2,0.8,0.8c0,3.3,0,6.6,0,10c0,0.7-0.2,0.9-0.9,0.9C38.5,90.6,36,90.6,33.6,90.6z"/>
		<path class="st0" d="M55.8,90.6c-2.4,0-4.8,0-7.1,0c-0.7,0-0.9-0.1-0.9-0.9c0-3.3,0-6.6,0-10c0-0.7,0.2-0.8,0.8-0.8
			c4.8,0,9.6,0,14.4,0c0.7,0,0.9,0.2,0.8,0.9c0,3.3,0,6.6,0,10c0,0.6-0.2,0.8-0.8,0.8C60.6,90.6,58.2,90.6,55.8,90.6z"/>
		<path class="st0" d="M55.9,39.6c-2.4,0-4.8,0-7.2,0c-0.6,0-0.9-0.1-0.9-0.8c0-3.3,0-6.7,0-10c0-0.6,0.1-0.8,0.8-0.8
			c4.8,0,9.7,0,14.5,0c0.6,0,0.8,0.1,0.8,0.8c0,3.4,0,6.8,0,10.1c0,0.6-0.2,0.8-0.8,0.8C60.7,39.6,58.3,39.6,55.9,39.6z"/>
	</g>
	<path class="st0" d="M12.6,79c2.4,0,4.8,0,7.2,0c0.6,0,0.8,0.1,0.8,0.8c0,3.3,0,6.6,0,10c0,0.7-0.2,0.8-0.9,0.8
		c-4.8,0-9.6,0-14.3,0c-0.6,0-0.8-0.2-0.8-0.8c0-3.3,0-6.6,0-10c0-0.6,0.1-0.8,0.8-0.8C7.8,79,10.2,79,12.6,79z"/>
	<path class="st0" d="M12.6,73.6c-2.4,0-4.8,0-7.2,0c-0.6,0-0.8-0.2-0.8-0.8c0-3.3,0-6.7,0-10c0-0.6,0.2-0.8,0.8-0.8
		c4.8,0,9.7,0,14.5,0c0.6,0,0.8,0.2,0.8,0.8c0,3.3,0,6.6,0,10c0,0.7-0.2,0.9-0.9,0.9C17.4,73.6,15,73.6,12.6,73.6z"/>
</g>
</svg>
