<?xml version="1.0" encoding="utf-8"?>
<!-- Generator: Adobe Illustrator 28.0.0, SVG Export Plug-In . SVG Version: 6.00 Build 0)  -->
<svg version="1.1" id="Layer_1" xmlns="http://www.w3.org/2000/svg" xmlns:xlink="http://www.w3.org/1999/xlink" x="0px" y="0px"
	 viewBox="0 0 408.5 118.7" style="enable-background:new 0 0 408.5 118.7;" xml:space="preserve">
<style type="text/css">
	.st0{fill:#DCF2F4;}
</style>
<g id="royh5F.tif">
	<g>
		<path class="st0" d="M165.2,99.9c-5.6,0-10.2-0.3-14.6,0.1c-4.4,0.4-6.3-1.5-7.8-5.4c-4-10.8-4.2-10.8-16-10.8c-2,0-4.1,0-6.1,0
			c-13.7,0-13.6,0.1-18.9,12.3c-0.7,1.7-3.3,3.4-5.1,3.6c-4.9,0.5-9.9,0.2-15.6,0.2c1.2-3.5,2-6.4,3.1-9.2
			c8-21.8,16.3-43.5,24.1-65.4c1.7-4.7,3.8-6.6,9.1-6.5c15.1,0.3,15.1,0.1,20.8,14.1C146.9,54.9,155.8,76.8,165.2,99.9z M133.2,69.1
			c-3.8-9.9-7.2-18.9-10.7-27.9c-0.5,0-1,0-1.5,0c-3.1,9.1-6.2,18.1-9.5,27.8C119.1,69.1,125.5,69.1,133.2,69.1z"/>
		<path class="st0" d="M277.6,72.8c0,9.5,0,18,0,26.8c-6.5,0-12.5,0-18.9,0c0-26.8,0-53.3,0-79.8c13.1,0,26.1-1.2,38.7,0.3
			c16,1.9,23.8,12.6,22.9,27.9c-0.8,14.3-10.9,23.7-26.9,24.8C288.5,73.1,283.5,72.8,277.6,72.8z M278.1,58.4
			c7.6-0.9,15.7,2.7,20.9-5.1c3.2-4.8,3.4-10.4-0.2-15.1c-5.4-7-13.1-4.7-20.7-4.6C278.1,41.9,278.1,49.6,278.1,58.4z"/>
		<path class="st0" d="M40.3,34.3c-12.9,0-24.2,0-36,0c0-4.9,0-9.5,0-14.6c21.8,0,43.8,0,66.8,0C58.2,41.2,45.6,62.4,32.3,84.6
			c13.6,0,25.9,0,38.6,0c0,5.2,0,9.7,0,14.7c-23,0-46,0-69.9,0C14,77.8,26.7,56.7,40.3,34.3z"/>
		<path class="st0" d="M180.5,19.5c12.7,0,25.2-0.9,37.4,0.2c15.8,1.5,24.7,12.3,24.1,27c-0.6,15.2-10.6,24.9-27.1,26
			c-4.9,0.3-9.9,0.1-15.5,0.1c0,9.1,0,17.7,0,26.7c-6.6,0-12.6,0-19,0C180.5,72.9,180.5,46.5,180.5,19.5z M199.6,58.6
			c8-1.1,17.2,2.9,21.2-6.2c1.8-4,1.5-10.7-0.8-14.3c-4.7-7.2-13-4.6-20.3-4.5C199.6,42.2,199.6,49.9,199.6,58.6z"/>
		<path class="st0" d="M360.3,99.3c0.4-13.8-2.3-27.3,6.5-40c7.2-10.4,12.8-22,18.3-33.4c2.7-5.5,6-7.7,12-6.9
			c3.1,0.4,6.2,0.1,10.4,0.1c-5.5,10.5-10.2,20.3-15.7,29.6c-9.3,15.6-17.2,31.3-12.3,50.6C372.4,99.3,366.7,99.3,360.3,99.3z"/>
		<path class="st0" d="M332,18.8c6.5,2.3,14.8-4.3,20.1,5.1c11.3,20.3,11.5,21.3,0,35.3c-7-13.1-13.8-26-20.7-38.9
			C331.6,19.8,331.8,19.3,332,18.8z"/>
	</g>
</g>
</svg>
